<svg width="24" height="24" viewBox="0 0 24 24" fill="none" xmlns="http://www.w3.org/2000/svg">
<g id="pets_24px">
<path id="icon/action/pets_24px" fill-rule="evenodd" clip-rule="evenodd" d="M9 2.4978C7.61929 2.4978 6.5 3.61709 6.5 4.9978C6.5 6.37851 7.61929 7.4978 9 7.4978C10.3807 7.4978 11.5 6.37851 11.5 4.9978C11.5 3.61709 10.3807 2.4978 9 2.4978ZM4.5 6.4978C3.11929 6.4978 2 7.61709 2 8.9978C2 10.3785 3.11929 11.4978 4.5 11.4978C5.88071 11.4978 7 10.3785 7 8.9978C7 7.61709 5.88071 6.4978 4.5 6.4978ZM12.5 4.9978C12.5 3.61709 13.6193 2.4978 15 2.4978C16.3807 2.4978 17.5 3.61709 17.5 4.9978C17.5 6.37851 16.3807 7.4978 15 7.4978C13.6193 7.4978 12.5 6.37851 12.5 4.9978ZM19.5 6.4978C18.1193 6.4978 17 7.61709 17 8.9978C17 10.3785 18.1193 11.4978 19.5 11.4978C20.8807 11.4978 22 10.3785 22 8.9978C22 7.61709 20.8807 6.4978 19.5 6.4978ZM16.4437 13.3033C16.7333 13.6447 17.0276 13.9916 17.34 14.3578C17.4179 14.4357 17.4969 14.5141 17.5765 14.5931C18.8347 15.8424 20.2416 17.2391 19.95 19.1578C19.66 20.1678 18.93 21.1878 17.62 21.4778C17.284 21.5422 16.6092 21.4542 15.7368 21.3403C14.7136 21.2068 13.4187 21.0378 12.08 21.0378H11.9C10.5726 21.0378 9.28818 21.2068 8.26906 21.3409C7.38415 21.4574 6.69927 21.5475 6.36 21.4778C5.05 21.1878 4.32 20.1778 4.03 19.1578C3.74798 17.2494 5.15391 15.8537 6.41175 14.6049C6.49193 14.5253 6.5715 14.4463 6.65 14.3678C7.21408 13.714 7.71652 13.1218 8.23371 12.5122C8.52337 12.1708 8.81767 11.824 9.13 11.4578C9.6 10.9178 10.18 10.3778 10.88 10.1378C10.99 10.0978 11.1 10.0678 11.21 10.0478C11.47 9.9978 11.74 9.9978 12 9.9978C12.26 9.9978 12.53 9.9978 12.78 10.0378C12.89 10.0578 13 10.0878 13.11 10.1278C13.81 10.3678 14.4 10.9078 14.86 11.4478C15.4241 12.1016 15.9265 12.6938 16.4437 13.3033Z" fill="#9B51E0"/>
</g>
</svg>
